# xmcd
#
# Track frame offsets:
#	150
#	15360
#	31545
#	48438
#	62513
#	75039
#	90053
#	104550
#	122892
#	140200
#	157714
#	173839
#	189644
#	205804
#	222199
#	242166
#	263461
#	286504
#	289381
#	292275
#	294907
#	297717
#	300216
#	302907
#	305788
#	308549
#	311365
#	314251
#	316940
#
# Disc length: 4257 seconds
#
# Revision: 1
# Processed by: cddbd v1.5.2PL0 Copyright (c) Steve Scherf et al.
# Submitted via: audiograbber 1.83.01
#
DISCID=8e109f1d
DTITLE=Various Artist - CDX 073
DYEAR=1993
DGENRE=Country
TTITLE0=Ashley Evans - A Whole Lot Of You
TTITLE1=Cimmaron - Blacktop Road
TTITLE2=Jimmie D Gilmore - I'm So Lonesome I Could Cry
TTITLE3=Tim McGraw - Indian Outlaw
TTITLE4=The Geezinslaw - I Wish I Had A Job To Shove
TTITLE5=Evangeline - Let's Go Spend Your Money Honey
TTITLE6=Martina McBride - Life #9
TTITLE7=Emmylou Harris - Thanks To You
TTITLE8=Vince Gill - Tryin' To Get Over You
TTITLE9=Tanya Tucker - We Don't Have To Do This
TTITLE10=Robin Lee - When Love Comes Callin'
TTITLE11=Ricky Van Shelton - Where Was I
TTITLE12=Alan Jackson - (Who Says) You Can't Have It All
TTITLE13=Dale Daniel - You Gave Her Your Name
TTITLE14=Tim McGraw - Indian Outlaw [Dance Trax Without Intro]
TTITLE15=Tim McGraw - Indian Outlaw [Dance Trax With Intro]
TTITLE16=Ronnie McDowell - Funky Cowboy (Dance)
TTITLE17=George Jones - AIDS Awareness PSA
TTITLE18=Johnny Cash - AIDS Awareness PSA
TTITLE19=Clint Black - AIDS Awareness PSA
TTITLE20=John Michael Montgomery - AIDS Awareness PSA
TTITLE21=Garth Brooks - AIDS Awareness PSA
TTITLE22=Kathy Mattea (& Joe Diffie) - AIDS Awareness PSA
TTITLE23=Marty Stuart - AIDS Awareness PSA
TTITLE24=Lee Roy Parnell - AIDS Awareness PSA
TTITLE25=Wynonna - AIDS Awareness PSA
TTITLE26=Radney Foster and Charlie Daniels - AIDS Awareness PSA
TTITLE27=Billy Ray Cyrus - AIDS Awareness PSA
TTITLE28=Mark Miller - AIDS Awareness PSA
EXTD=
EXTT0=
EXTT1=
EXTT2=
EXTT3=
EXTT4=
EXTT5=
EXTT6=
EXTT7=
EXTT8=
EXTT9=
EXTT10=
EXTT11=
EXTT12=
EXTT13=
EXTT14=
EXTT15=
EXTT16=
EXTT17=
EXTT18=
EXTT19=
EXTT20=
EXTT21=
EXTT22=
EXTT23=
EXTT24=
EXTT25=
EXTT26=
EXTT27=
EXTT28=
PLAYORDER=
